<svg xmlns="http://www.w3.org/2000/svg" viewBox="0 0 349.96 178.91"><defs><style>.logo-red{fill:#be1622}.logo-blue{fill:#3775a3}.logo-beige{fill:#fbfae6}</style></defs><path d="M167.8 175.27 15.97 137.45a18.925 18.925 0 0 1-13.22-18.04V59.5c0-8.25 5.35-15.55 13.22-18.04L167.8 3.64c3.75-1.19 7.77-1.17 11.52.03L334.1 41.4a18.93 18.93 0 0 1 13.11 18.01v60.09c0 8.21-5.3 15.48-13.11 18.01l-154.78 37.73a18.882 18.882 0 0 1-11.52.03Z" class="logo-beige"/><path d="M173.5 178.91c-2.17 0-4.34-.33-6.45-.99L15.14 140.07A21.596 21.596 0 0 1 0 119.41V59.5C0 50 6.08 41.7 15.14 38.84l.16-.05L167.05.99c4.26-1.33 8.76-1.32 13.01.03l154.79 37.73.1.03a21.62 21.62 0 0 1 15.02 20.62v60.09c0 9.44-6.03 17.73-15.02 20.62l-.19.06-154.69 37.71c-2.15.68-4.35 1.02-6.56 1.02ZM16.72 134.8l151.91 37.84c3.22 1.02 6.62 1.01 9.84-.03l.19-.05 154.68-37.71a16.125 16.125 0 0 0 11.11-15.36V59.4c0-7.01-4.46-13.17-11.11-15.36L178.56 6.32l-.1-.03a16.054 16.054 0 0 0-9.84-.03l-.16.05L16.72 44.1A16.11 16.11 0 0 0 5.5 59.49v59.91c0 7.06 4.5 13.23 11.22 15.39Z" class="logo-blue"/><path d="M120.62 58.94h-2.79c-.18-.4-.26-1.1-.29-2.17-.33 1.47-1.21 2.35-3.05 2.35h-.73c-2.24 0-2.86-.92-2.86-3.49V41.98c0-2.57.62-3.49 2.86-3.49h.73c1.61 0 2.46.7 2.9 1.87v-7.12h2.94v22.27c0 1.17.04 2.2.29 3.41Zm-3.23-15.34c0-1.54-.4-2.42-1.61-2.42h-.59c-1.25 0-1.36.51-1.36 1.95v11.38c0 1.43.11 1.94 1.36 1.94h.59c1.21 0 1.61-.88 1.61-2.42V43.61ZM129.31 52.04h2.75v2.83c0 3.3-.81 4.26-3.82 4.26h-1.61c-3.05 0-3.85-.95-3.85-4.26V42.76c0-3.3.81-4.26 3.85-4.26h1.61c3.01 0 3.82.95 3.82 4.26v6.94h-6.35v4.73c0 1.5.15 2.02 1.47 2.02h.66c1.32 0 1.47-.51 1.47-2.02v-2.39Zm0-8.84c0-1.5-.15-2.02-1.47-2.02h-.66c-1.32 0-1.47.51-1.47 2.02v3.93h3.6V43.2ZM64.07 82.03c.98-2.56 3.12-4.08 7.05-4.08h1.78c5.44 0 7.05 2 7.05 7.59v29.74c0 5.6-1.61 7.59-7.05 7.59h-1.78c-4.37 0-6.51-1.84-7.41-4.88l-.71 4.48h-6.07V66.51h7.14v15.51Zm5.35 1.76h-1.34c-2.94 0-4.02 1.92-4.02 5.28v22.7c0 3.36 1.07 5.28 4.02 5.28h1.34c3.03 0 3.39-1.12 3.39-4.24V88.03c0-3.12-.36-4.24-3.39-4.24ZM101.37 107.45h6.69v6.16c0 7.19-1.96 9.27-9.28 9.27h-3.93c-7.41 0-9.37-2.08-9.37-9.27V87.23c0-7.19 1.96-9.27 9.37-9.27h3.93c7.32 0 9.28 2.08 9.28 9.27v15.11H92.62v10.31c0 3.28.36 4.4 3.57 4.4h1.61c3.21 0 3.57-1.12 3.57-4.4v-5.2Zm0-19.26c0-3.28-.36-4.4-3.57-4.4h-1.61c-3.21 0-3.57 1.12-3.57 4.4v8.55h8.75v-8.55Z" class="logo-blue"/><path d="M118.06 122.48v-49.4h-6.87v-6.56h21.51v6.56h-6.78v49.4h-7.85ZM136.09 76.51c0-8.07 2.23-10.39 10.44-10.39h4.73c8.21 0 10.44 2.32 10.44 10.39v35.97c0 8.07-2.23 10.39-10.44 10.39h-4.73c-8.21 0-10.44-2.32-10.44-10.39V76.51Zm17.75 1.12c0-3.76-.36-4.96-4.02-4.96h-1.87c-3.66 0-4.02 1.2-4.02 4.96v33.73c0 3.76.36 4.96 4.02 4.96h1.87c3.66 0 4.02-1.2 4.02-4.96V77.63ZM167.77 76.51c0-8.07 2.23-10.39 10.44-10.39h4.73c8.21 0 10.44 2.32 10.44 10.39v35.97c0 8.07-2.23 10.39-10.44 10.39h-4.73c-8.21 0-10.44-2.32-10.44-10.39V76.51Zm17.75 1.12c0-3.76-.36-4.96-4.02-4.96h-1.87c-3.66 0-4.02 1.2-4.02 4.96v33.73c0 3.76.36 4.96 4.02 4.96h1.87c3.66 0 4.02-1.2 4.02-4.96V77.63ZM212.3 91.46h12.31v21.02c0 8.07-2.14 10.39-10.44 10.39h-4.28c-8.21 0-10.44-2.32-10.44-10.39V76.51c0-8.07 2.23-10.39 10.44-10.39h4.28c8.3 0 10.44 2.32 10.44 10.39v9.51h-7.41v-8.39c0-3.76-.36-4.96-4.02-4.96h-1.87c-3.66 0-4.02 1.2-4.02 4.96v33.73c0 3.76.36 4.96 4.02 4.96h1.87c3.66 0 4.02-1.2 4.02-4.96V98.01h-4.91v-6.56Z" class="logo-red"/><path d="M232.55 66.52h7.14V73h-7.14v-6.48Zm7.14 55.96h-7.14V78.35h7.14v44.13ZM262 122.48V88.03c0-3.12-.36-4.24-3.39-4.24h-1.34c-2.94 0-4.02 1.92-4.02 5.28v33.42h-7.14V78.36h6.69v5.04c.8-3.36 2.86-5.44 7.5-5.44h1.78c5.44 0 7.05 2 7.05 7.59v36.93h-7.14ZM280.47 113.93c0 1.92 1.25 2.4 3.66 2.4h5.53c6.07 0 10.17.88 10.17 7.43v1.28c0 6.32-2.94 7.99-10.08 7.99h-7.67c-4.55 0-7.41-1.68-7.41-6.16v-1.44c0-2.48 1.07-3.92 3.12-4.64-1.7-1.12-2.23-2.88-2.23-5.12v-.64c0-2.64.98-4.08 2.77-4.88-2.68-1.2-3.57-3.76-3.57-8.47V87.21c0-7.19 1.96-9.27 9.28-9.27h3.3c4.46 0 6.87.8 8.12 3.04.27-1.68 1.25-3.04 3.3-3.04h1.16v5.68h-1.16c-1.07 0-1.52.72-1.52 2.08v15.99c0 7.11-1.96 9.27-9.28 9.27h-4.28c-2.32 0-3.21.72-3.21 2.8v.16Zm13.48 11.11c0-2.48-1.34-2.88-4.37-2.88h-5.89c-2.59 0-3.75.8-3.75 3.04v.48c0 2.8 1.34 3.2 4.02 3.2h5.62c3.03 0 4.37-.4 4.37-3.36v-.48Zm-12.32-23.74c0 3.28.36 4.48 3.57 4.48h1.61c3.21 0 3.57-1.2 3.57-4.48V87.63c0-3.28-.36-4.48-3.57-4.48h-1.61c-3.21 0-3.57 1.2-3.57 4.48v13.67Z" class="logo-blue"/></svg>
