<svg xmlns="http://www.w3.org/2000/svg" id="Layer_1" viewBox="0 0 270 69"><defs><style>.cls-3{fill:#fff}</style></defs><path d="M34.5 1.5c-18.23 0-33 14.78-33 33s14.77 33 33 33h201c18.23 0 33-14.78 33-33s-14.77-33-33-33h-201Z" style="fill:#eb8a53"/><path d="M34.5 1.5c-18.23 0-33 14.78-33 33s14.77 33 33 33h201c18.23 0 33-14.78 33-33s-14.77-33-33-33h-201Z" style="fill:none;stroke:#fff;stroke-width:3px"/><path d="m46.11 19.32-5.45 12.6h-2.88l-5.44-12.6h3.15l3.83 9 3.89-9h2.9ZM55.2 31.92l-2.43-3.51h-2.68v3.51h-2.92v-12.6h5.45c1.12 0 2.08.19 2.91.56.82.37 1.46.9 1.9 1.58s.67 1.49.67 2.43-.23 1.74-.67 2.42c-.45.68-1.09 1.2-1.92 1.56l2.83 4.05h-3.13Zm-.74-9.65c-.46-.38-1.12-.57-2-.57h-2.38v4.39h2.38c.88 0 1.54-.19 2-.58.46-.38.68-.92.68-1.62s-.23-1.25-.68-1.63ZM62.96 31.29a6.3 6.3 0 0 1-2.47-2.33c-.59-.99-.89-2.1-.89-3.34s.3-2.35.89-3.34c.59-.99 1.42-1.77 2.47-2.33 1.05-.56 2.23-.85 3.54-.85s2.48.28 3.53.85c1.04.56 1.87 1.34 2.47 2.33.6.99.9 2.1.9 3.34s-.3 2.35-.9 3.34-1.42 1.77-2.47 2.33-2.22.85-3.53.85-2.49-.28-3.54-.85Zm5.56-2.15c.6-.34 1.07-.82 1.41-1.43.34-.61.51-1.31.51-2.09s-.17-1.48-.51-2.09c-.34-.61-.81-1.09-1.41-1.43-.6-.34-1.27-.51-2.02-.51s-1.42.17-2.02.51c-.6.34-1.07.82-1.41 1.43-.34.61-.51 1.31-.51 2.09s.17 1.48.51 2.09.81 1.09 1.41 1.43c.6.34 1.27.51 2.02.51s1.42-.17 2.02-.51ZM75.59 19.32h2.92v10.22h6.32v2.38H75.6v-12.6ZM86.46 19.32h2.92v12.6h-2.92v-12.6ZM92.34 31.66c-.71-.32-1.3-.77-1.75-1.36l1.62-1.94c.68.92 1.46 1.39 2.34 1.39 1.19 0 1.78-.7 1.78-2.09v-5.99H91.9v-2.34h7.33v8.17c0 1.55-.38 2.71-1.15 3.48-.77.77-1.9 1.16-3.38 1.16-.85 0-1.64-.16-2.35-.48ZM106.69 26.97 105 28.73v3.19h-2.9v-12.6h2.9v5.89l5.58-5.89h3.24l-5.22 5.62 5.53 6.98h-3.4l-4.03-4.95ZM125.18 29.58v2.34h-9.76v-12.6h9.52v2.34h-6.62v2.74h5.85v2.27h-5.85v2.92h6.86ZM144.71 19.32l-5.45 12.6h-2.88l-5.44-12.6h3.15l3.83 9 3.89-9h2.9ZM153.78 31.92l-2.43-3.51h-2.68v3.51h-2.92v-12.6h5.45c1.12 0 2.08.19 2.91.56s1.46.9 1.9 1.58c.44.68.67 1.49.67 2.43s-.23 1.74-.67 2.42c-.45.68-1.09 1.2-1.92 1.56l2.83 4.05h-3.13Zm-.74-9.65c-.46-.38-1.12-.57-2-.57h-2.38v4.39h2.38c.88 0 1.54-.19 2-.58.46-.38.68-.92.68-1.62s-.23-1.25-.68-1.63ZM158.98 19.32h2.92v12.6h-2.92v-12.6ZM174.64 29.58v2.34h-9.76v-12.6h9.52v2.34h-6.62v2.74h5.85v2.27h-5.85v2.92h6.86ZM188.52 19.32v12.6h-2.39l-6.28-7.65v7.65h-2.88v-12.6h2.41l6.26 7.65v-7.65h2.88ZM191.51 19.32h5.72c1.37 0 2.58.26 3.63.78 1.05.52 1.87 1.26 2.45 2.21.58.95.87 2.05.87 3.31s-.29 2.36-.87 3.31c-.58.95-1.4 1.68-2.45 2.21-1.05.52-2.26.78-3.63.78h-5.72v-12.6Zm5.58 10.21c1.26 0 2.26-.35 3.01-1.05s1.12-1.65 1.12-2.85-.38-2.15-1.12-2.85-1.75-1.05-3.01-1.05h-2.66v7.81h2.66ZM216.13 29.58v2.34h-9.76v-12.6h9.52v2.34h-6.62v2.74h5.85v2.27h-5.85v2.92h6.86ZM230.01 19.32v12.6h-2.39l-6.28-7.65v7.65h-2.88v-12.6h2.41l6.26 7.65v-7.65h2.88ZM46.11 39.32l-5.45 12.6h-2.88l-5.44-12.6h3.15l3.83 9 3.89-9h2.9ZM55.05 49.22H49.2l-1.12 2.7h-2.99l5.62-12.6h2.88l5.63 12.6h-3.06l-1.12-2.7Zm-.91-2.21-2-4.82-2 4.82h4ZM72.1 39.32v12.6h-2.39l-6.28-7.65v7.65h-2.88v-12.6h2.41l6.26 7.65v-7.65h2.88ZM91.74 39.32v12.6h-2.92v-5.17H83.1v5.17h-2.92v-12.6h2.92v4.97h5.72v-4.97h2.92ZM104.48 49.58v2.34h-9.76v-12.6h9.52v2.34h-6.62v2.74h5.85v2.27h-5.85v2.92h6.86ZM109.41 41.7h-4.03v-2.38h10.98v2.38h-4.03v10.22h-2.92V41.7ZM135.13 39.32l-5.45 12.6h-2.88l-5.44-12.6h3.15l3.83 9 3.89-9h2.9ZM138.6 51.29a6.3 6.3 0 0 1-2.47-2.33c-.59-.99-.89-2.1-.89-3.34s.3-2.35.89-3.34c.59-.99 1.42-1.77 2.47-2.33 1.05-.56 2.23-.85 3.54-.85s2.48.28 3.53.85c1.04.56 1.87 1.34 2.47 2.33.6.99.9 2.1.9 3.34s-.3 2.35-.9 3.34c-.6.99-1.42 1.77-2.47 2.33s-2.22.85-3.53.85-2.49-.28-3.54-.85Zm5.55-2.15c.6-.34 1.07-.82 1.41-1.43s.51-1.31.51-2.09-.17-1.48-.51-2.09c-.34-.61-.81-1.09-1.41-1.43-.6-.34-1.27-.51-2.02-.51s-1.42.17-2.02.51c-.6.34-1.07.82-1.41 1.43-.34.61-.51 1.31-.51 2.09s.17 1.48.51 2.09.81 1.09 1.41 1.43 1.27.51 2.02.51 1.42-.17 2.02-.51ZM151.23 39.32h2.92v10.22h6.32v2.38h-9.23v-12.6ZM166.69 46.97 165 48.73v3.19h-2.9v-12.6h2.9v5.89l5.58-5.89h3.24l-5.22 5.62 5.53 6.98h-3.4l-4.03-4.95ZM176.42 51.73c-.93-.27-1.68-.62-2.24-1.05l.99-2.2c.54.4 1.18.71 1.93.95.74.24 1.49.36 2.23.36.83 0 1.44-.12 1.84-.37.4-.25.59-.57.59-.98 0-.3-.12-.55-.35-.75-.23-.2-.53-.36-.9-.48s-.86-.25-1.48-.4c-.96-.23-1.75-.46-2.36-.68-.61-.23-1.14-.59-1.58-1.1s-.66-1.18-.66-2.02c0-.73.2-1.4.59-1.99.4-.59.99-1.07 1.79-1.41.8-.35 1.77-.52 2.92-.52.8 0 1.59.1 2.36.29.77.19 1.44.47 2.02.83l-.9 2.21c-1.16-.66-2.33-.99-3.49-.99-.82 0-1.42.13-1.81.4-.39.26-.58.61-.58 1.04s.22.75.67.96 1.14.42 2.06.62c.96.23 1.75.46 2.36.68.61.23 1.14.59 1.58 1.08.44.49.66 1.16.66 2 0 .72-.2 1.38-.6 1.97-.4.59-1 1.06-1.81 1.41-.8.35-1.78.52-2.93.52-1 0-1.96-.13-2.89-.41ZM189.2 51.3a6.288 6.288 0 0 1-2.45-2.32c-.59-.99-.89-2.11-.89-3.36s.3-2.37.89-3.36c.59-.99 1.41-1.76 2.45-2.32 1.04-.56 2.21-.84 3.5-.84 1.09 0 2.08.19 2.96.58.88.38 1.62.94 2.22 1.66l-1.87 1.73c-.85-.98-1.91-1.48-3.17-1.48-.78 0-1.48.17-2.09.51-.61.34-1.09.82-1.43 1.43-.34.61-.51 1.31-.51 2.09s.17 1.48.51 2.09.82 1.09 1.43 1.43c.61.34 1.31.51 2.09.51 1.26 0 2.32-.5 3.17-1.49l1.87 1.73c-.6.73-1.34 1.29-2.23 1.67s-1.88.58-2.97.58c-1.28 0-2.45-.28-3.48-.84ZM207.91 49.22h-5.85l-1.12 2.7h-2.99l5.62-12.6h2.88l5.63 12.6h-3.06l-1.12-2.7Zm-.92-2.21-2-4.82-2 4.82h4ZM216.31 41.66v3.33h5.83v2.34h-5.83v4.59h-2.92v-12.6h9.52v2.34h-6.61ZM234.66 49.58v2.34h-9.76v-12.6h9.52v2.34h-6.62v2.74h5.85v2.27h-5.85v2.92h6.86Zm-4.2-13.88h3.02l-3.26 2.59h-2.2l2.43-2.59Z" class="cls-3"/></svg>